<svg width="9" height="14" viewBox="0 0 9 14" fill="none" xmlns="http://www.w3.org/2000/svg">
<path fill-rule="evenodd" clip-rule="evenodd" d="M8.03922 9.19999C7.41033 9.54481 6.73702 9.81126 6.01539 10.143C6.4451 10.5655 6.87481 10.9874 7.30518 11.41C7.53375 11.6353 7.76951 11.854 7.98959 12.0872C8.39514 12.5162 8.39318 13.104 7.99612 13.4926C7.6082 13.8733 6.97931 13.8766 6.55155 13.4723C5.96771 12.9218 5.40412 12.351 4.82943 11.7913C4.75041 11.7143 4.65963 11.6496 4.48461 11.5053C3.88967 12.1179 3.30453 12.7304 2.70437 13.3286C2.54894 13.4834 2.36281 13.631 2.16102 13.7133C1.73065 13.889 1.22975 13.7061 0.968528 13.3228C0.734079 12.9799 0.758243 12.4614 1.07171 12.1362C1.59481 11.5935 2.14404 11.0749 2.6802 10.5446C2.81343 10.4127 2.94012 10.2736 3.10339 10.1019C2.57441 9.89355 2.09767 9.71591 1.63008 9.51738C1.42371 9.42987 1.22649 9.31363 1.03971 9.18954C0.523794 8.84734 0.393181 8.3053 0.699467 7.82922C0.999875 7.36228 1.58502 7.21795 2.10094 7.51118C3.72837 8.43657 5.34992 8.44636 6.98061 7.52097C7.49914 7.2271 8.09604 7.36032 8.39318 7.81485C8.71971 8.3151 8.60804 8.88783 8.03922 9.19999ZM4.51988 7.14285C2.49016 7.12195 0.901916 5.45207 1.01816 3.58236C1.03318 1.67477 2.62012 0.12244 4.56037 0.153787C6.71743 0.189052 8.17833 1.90987 8.10322 3.79003C8.02812 5.64407 6.45424 7.16309 4.51988 7.14285ZM4.55906 2.12146C3.73816 2.11167 3.02045 2.82677 3.01979 3.65485C3.01979 4.46269 3.69963 5.14775 4.52249 5.1693C5.34861 5.19085 6.08135 4.49077 6.09375 3.66726C6.10616 2.86334 5.3793 2.1306 4.55906 2.12146Z" fill="#8257B0"/>
</svg>
