<svg width="18" height="12" viewBox="0 0 18 12" fill="none" xmlns="http://www.w3.org/2000/svg">
<path fill-rule="evenodd" clip-rule="evenodd" d="M16.7686 1.00951C16.1601 0.292265 15.0375 0 12.8925 0H5.10758C2.91346 0 1.77174 0.312015 1.1657 1.074C0.574707 1.81891 0.574707 2.91338 0.574707 4.43034V7.3209C0.574707 10.2582 1.27605 11.7502 5.10758 11.7502H12.8925C14.7526 11.7502 15.7832 11.4926 16.4498 10.8605C17.1338 10.2125 17.4254 9.15417 17.4254 7.3209V4.43034C17.4254 2.83112 17.3797 1.7291 16.7686 1.00951ZM11.3932 6.27493L7.85768 8.10534C7.77875 8.14665 7.69215 8.16677 7.60585 8.16677C7.50827 8.16677 7.41086 8.14054 7.32441 8.08846C7.16174 7.99145 7.06235 7.81595 7.06235 7.62807V3.97822C7.06235 3.78978 7.16113 3.61554 7.32366 3.51801C7.48602 3.42102 7.68824 3.41382 7.85647 3.50076L11.3915 5.31931C11.5715 5.41237 11.6844 5.59593 11.6848 5.79658C11.685 5.99704 11.5724 6.18206 11.3932 6.27493Z" fill="#8257B0"/>
</svg>
