<svg width="24" height="24" viewBox="0 0 24 24" fill="none" xmlns="http://www.w3.org/2000/svg">
<g clip-path="url(#clip0_4703_31344)">
<path d="M12 24C18.6274 24 24 18.6274 24 12C24 5.37258 18.6274 0 12 0C5.37258 0 0 5.37258 0 12C0 18.6274 5.37258 24 12 24Z" fill="#E62159"/>
<path fill-rule="evenodd" clip-rule="evenodd" d="M17.1667 12.8993L9.73098 17.0479C9.61264 17.1137 9.47915 17.1474 9.34374 17.1456C9.20832 17.1439 9.07569 17.1067 8.95911 17.0378C8.84253 16.9688 8.74606 16.8706 8.67922 16.7528C8.61238 16.6351 8.57752 16.5018 8.57815 16.3664V8.06925C8.57714 7.93368 8.61174 7.80022 8.67849 7.68222C8.74523 7.56421 8.84177 7.46582 8.95848 7.39683C9.07519 7.32785 9.20796 7.29069 9.34353 7.28911C9.47909 7.28754 9.61269 7.32158 9.73098 7.38783L17.1667 11.5364C17.2877 11.6044 17.3883 11.7034 17.4584 11.8231C17.5285 11.9429 17.5654 12.0791 17.5654 12.2178C17.5654 12.3566 17.5285 12.4928 17.4584 12.6126C17.3883 12.7323 17.2877 12.8313 17.1667 12.8993Z" fill="white"/>
</g>
<defs>
<clipPath id="clip0_4703_31344">
<rect width="24" height="24" fill="white"/>
</clipPath>
</defs>
</svg>
